# xmcd
#
# Track frame offsets: 
#        150
#        13630
#        25040
#        38026
#        51267
#        66448
#        77574
#        87907
#        100557
#        111935
#        123284
#        134639
#        146236
#        157056
#        168282
#        179932
#        189786
#        202243
#        212763
#        222804
#        232265
#        243235
#        254084
#
# Disc length: 3540 seconds
#
# Revision: 0
# Processed by: cddbd v1.5.2PL0 Copyright (c) Steve Scherf et al.
# Submitted via: ExactAudioCopy v0.99pb5
#
DISCID=580dd217
DTITLE=Etta James - Tough  Woman - Disc 1
DYEAR=2011
DGENRE=Blues
TTITLE0=The Wallflower
TTITLE1=Hold Me Squeeze Me
TTITLE2=Be Mine
TTITLE3=Hey Henry
TTITLE4=Crazy Feeling
TTITLE5=Good Rockin' Daddy
TTITLE6=That's All
TTITLE7=W O M A N
TTITLE8=I'm A Fool
TTITLE9=My One And Only
TTITLE10=Tears Of Joy
TTITLE11=Shortnin' Bread Rock
TTITLE12=Fools We Mortals Be
TTITLE13=Tough Lover
TTITLE14=Then I'll Care
TTITLE15=Good Lookin'
TTITLE16=Market Place
TTITLE17=The Pick Up
TTITLE18=By The Light Of The Silvery Moon
TTITLE19=Come What May
TTITLE20=Baby Baby Everynight
TTITLE21=Dance With Me Henry
TTITLE22=Strange Things Happening
EXTD=
EXTT0=
EXTT1=
EXTT2=
EXTT3=
EXTT4=
EXTT5=
EXTT6=
EXTT7=
EXTT8=
EXTT9=
EXTT10=
EXTT11=
EXTT12=
EXTT13=
EXTT14=
EXTT15=
EXTT16=
EXTT17=
EXTT18=
EXTT19=
EXTT20=
EXTT21=
EXTT22=
PLAYORDER=
